<svg width="32" height="33" viewBox="0 0 32 33" fill="none" xmlns="http://www.w3.org/2000/svg">
<path d="M5.33301 16.7712C5.33301 11.7428 5.33301 9.22869 6.8951 7.66659C8.45721 6.10449 10.9714 6.10449 15.9997 6.10449C21.0279 6.10449 23.5422 6.10449 25.1042 7.66659C26.6663 9.22869 26.6663 11.7428 26.6663 16.7712C26.6663 21.7994 26.6663 24.3137 25.1042 25.8757C23.5422 27.4378 21.0279 27.4378 15.9997 27.4378C10.9714 27.4378 8.45721 27.4378 6.8951 25.8757C5.33301 24.3137 5.33301 21.7994 5.33301 16.7712Z" fill="#0033E6" stroke="#E4EAFF" stroke-width="2" stroke-linejoin="round"/>
<path d="M10 20.771L12.4559 13.4035C12.5817 13.0258 12.9352 12.771 13.3333 12.771C13.7315 12.771 14.0849 13.0258 14.2108 13.4035L16.6667 20.771M11.3333 18.1043H15.3333" stroke="white" stroke-width="2" stroke-linecap="round" stroke-linejoin="round"/>
<path d="M20.667 12.771V20.771" stroke="white" stroke-width="2" stroke-linecap="round" stroke-linejoin="round"/>
<path d="M10.667 3.4375V6.10417M21.3337 3.4375V6.10417M16.0003 3.4375V6.10417M10.667 27.4375V30.1042M16.0003 27.4375V30.1042M21.3337 27.4375V30.1042M29.3337 22.1042H26.667M5.33366 11.4375H2.66699M5.33366 22.1042H2.66699M5.33366 16.7708H2.66699M29.3337 11.4375H26.667M29.3337 16.7708H26.667" stroke="#E4EAFF" stroke-width="2" stroke-linecap="round" stroke-linejoin="round"/>
</svg>
