<svg width="32" height="33" viewBox="0 0 32 33" fill="none" xmlns="http://www.w3.org/2000/svg">
<path d="M5.62995 30.0972V25.3643C5.62995 23.6691 5.18602 22.7879 4.31342 21.3146C3.26739 19.5486 2.66699 17.4875 2.66699 15.2863C2.66699 8.74238 7.97324 3.4375 14.5189 3.4375C21.0645 3.4375 26.3707 8.74238 26.3707 15.2863C26.3707 16.0592 26.3707 16.4458 26.403 16.6624C26.4801 17.1804 26.7218 17.626 26.9595 18.0872L29.3337 22.6918L27.4678 23.6244C26.927 23.8947 26.6567 24.0299 26.4683 24.2794C26.2799 24.5287 26.227 24.8103 26.1209 25.3734L26.1105 25.4283C25.8675 26.7183 25.5994 28.1423 24.8442 29.0407C24.5775 29.3579 24.2474 29.6156 23.8749 29.7974C23.2599 30.0972 22.5039 30.0972 20.9919 30.0972C20.2923 30.0972 19.5907 30.1134 18.8913 30.0964C17.2333 30.056 16.0003 28.662 16.0003 27.0434" fill="#0033E6"/>
<path d="M5.62995 30.0972V25.3643C5.62995 23.6691 5.18602 22.7879 4.31342 21.3146C3.26739 19.5486 2.66699 17.4875 2.66699 15.2863C2.66699 8.74238 7.97324 3.4375 14.5189 3.4375C21.0645 3.4375 26.3707 8.74238 26.3707 15.2863C26.3707 16.0592 26.3707 16.4458 26.403 16.6624C26.4801 17.1804 26.7218 17.626 26.9595 18.0872L29.3337 22.6918L27.4678 23.6244C26.927 23.8947 26.6567 24.0299 26.4683 24.2794C26.2799 24.5287 26.227 24.8103 26.1209 25.3734L26.1105 25.4283C25.8675 26.7183 25.5994 28.1423 24.8442 29.0407C24.5775 29.3579 24.2474 29.6156 23.8749 29.7974C23.2599 30.0972 22.5039 30.0972 20.9919 30.0972C20.2923 30.0972 19.5907 30.1134 18.8913 30.0964C17.2333 30.056 16.0003 28.662 16.0003 27.0434" stroke="#E4EAFF" stroke-width="2" stroke-linecap="round" stroke-linejoin="round"/>
<path d="M19.1843 14.8128C18.6159 14.8128 18.0975 14.5978 17.7049 14.2439M19.1843 14.8128C19.1843 16.3407 18.2991 17.7919 16.5951 17.7919C14.8911 17.7919 14.0061 19.243 14.0061 20.7708M19.1843 14.8128C22.0501 14.8128 22.0501 10.3444 19.1843 10.3444C18.9239 10.3444 18.6741 10.3895 18.4419 10.4725C18.5819 7.14175 13.7802 6.2375 12.6926 9.35774M12.6926 9.35774C13.4847 9.8923 14.0061 10.8018 14.0061 11.8339M12.6926 9.35774C10.2235 7.69128 6.9321 10.6816 8.49798 13.3479C5.87 13.7419 6.15098 17.7919 8.82766 17.7919C9.57824 17.7919 10.2418 17.4167 10.6434 16.8426" stroke="#E4EAFF" stroke-width="2" stroke-linecap="round" stroke-linejoin="round"/>
</svg>
