<svg width="32" height="33" viewBox="0 0 32 33" fill="none" xmlns="http://www.w3.org/2000/svg">
<path d="M3.33398 19.1043C3.33398 14.2331 3.33398 11.7976 4.81797 10.2843C6.30197 8.771 8.69043 8.771 13.4673 8.771H18.534C23.3109 8.771 25.6993 8.771 27.1833 10.2843C28.6673 11.7976 28.6673 14.2331 28.6673 19.1043C28.6673 23.9755 28.6673 26.4111 27.1833 27.9243C25.6993 29.4377 23.3109 29.4377 18.534 29.4377H13.4673C8.69043 29.4377 6.30197 29.4377 4.81797 27.9243C3.33398 26.4111 3.33398 23.9755 3.33398 19.1043Z" fill="#0033E6" stroke="#E4EAFF" stroke-width="2" stroke-linecap="round"/>
<path d="M9.33301 16.771V28.771M22.6663 16.771V28.771" stroke="#E4EAFF" stroke-width="2" stroke-linecap="round" stroke-linejoin="round"/>
<path d="M4 16.771H28" stroke="#E4EAFF" stroke-width="2" stroke-linecap="round" stroke-linejoin="round"/>
<path d="M22 8.77116L21.8676 8.35908C21.2075 6.30568 20.8775 5.27899 20.0919 4.69173C19.3061 4.10449 18.2627 4.10449 16.1755 4.10449H15.8245C13.7373 4.10449 12.6938 4.10449 11.9081 4.69173C11.1225 5.27899 10.7925 6.30568 10.1325 8.35908L10 8.77116" stroke="#E4EAFF" stroke-width="2"/>
</svg>
