<svg width="32" height="32" viewBox="0 0 32 32" fill="none" xmlns="http://www.w3.org/2000/svg">
<path d="M15.3333 29.3333C9.99075 29.3333 7.31945 29.3333 5.65973 27.3806C4 25.4281 4 22.2853 4 16C4 9.71457 4 6.57187 5.65973 4.61925C7.31945 2.66663 9.99075 2.66663 15.3333 2.66663C20.6759 2.66663 23.3472 2.66663 25.0069 4.61925C26.3429 6.19105 26.6036 8.53401 26.6544 12.6666" stroke="#0033E6" stroke-width="2" stroke-linecap="round" stroke-linejoin="round"/>
<path d="M10.667 10.6665H20.0003M10.667 17.3332H14.667" stroke="#0033E6" stroke-width="2" stroke-linecap="round" stroke-linejoin="round"/>
<path d="M26.1459 24.1405C27.2698 23.3224 28.0003 21.9965 28.0003 20.5C28.0003 18.0147 25.9857 16 23.5003 16H23.167C20.6817 16 18.667 18.0147 18.667 20.5C18.667 21.9965 19.3975 23.3224 20.5214 24.1405M26.1459 24.1405C25.4034 24.6811 24.4891 25 23.5003 25H23.167C22.1782 25 21.2639 24.6811 20.5214 24.1405M26.1459 24.1405L26.923 26.5872C27.2194 27.5204 27.3677 27.9871 27.3271 28.2776C27.2427 28.8823 26.7495 29.3312 26.1673 29.3333C25.8875 29.3344 25.4683 29.1144 24.6301 28.6745C24.2706 28.4859 24.0909 28.3915 23.907 28.336C23.5323 28.2231 23.135 28.2231 22.7603 28.336C22.5765 28.3915 22.3967 28.4859 22.0373 28.6745C21.199 29.1144 20.7798 29.3344 20.5001 29.3333C19.9178 29.3312 19.4246 28.8823 19.3402 28.2776C19.2997 27.9871 19.4479 27.5204 19.7443 26.5872L20.5214 24.1405" stroke="#0033E6" stroke-width="2"/>
</svg>
