<svg width="48" height="49" viewBox="0 0 48 49" fill="none" xmlns="http://www.w3.org/2000/svg">
<path d="M9.16682 35.4133C7.10632 33.2259 6 30.7711 6 26.7917C6 19.7928 10.913 13.5184 18.0612 10.4175L19.8466 13.1727C13.1761 16.7819 11.8724 21.4631 11.3513 24.4151C12.4253 23.8597 13.8312 23.6643 15.2094 23.7921C18.8182 24.1267 21.6624 27.0891 21.6624 30.7711C21.6624 34.6371 18.5283 37.7711 14.6623 37.7711C12.5162 37.7711 10.4639 36.7901 9.16682 35.4133ZM29.1668 35.4133C27.1064 33.2259 26 30.7711 26 26.7917C26 19.7928 30.913 13.5184 38.0612 10.4175L39.8466 13.1727C33.176 16.7819 31.8724 21.4631 31.3512 24.4151C32.4252 23.8597 33.8312 23.6643 35.2094 23.7921C38.8182 24.1267 41.6624 27.0891 41.6624 30.7711C41.6624 34.6371 38.5284 37.7711 34.6624 37.7711C32.5162 37.7711 30.464 36.7901 29.1668 35.4133Z" fill="black"/>
</svg>
