<svg width="32" height="32" viewBox="0 0 32 32" fill="none" xmlns="http://www.w3.org/2000/svg">
<path fill-rule="evenodd" clip-rule="evenodd" d="M8.24243 13.7777C6.93875 13.7777 6.66667 14.0336 6.66667 15.2592V17.4815C6.66667 18.7072 6.93875 18.9629 8.24243 18.9629H11.3939V27.8519C11.3939 29.0775 11.666 29.3333 12.9697 29.3333H16.1212C17.4249 29.3333 17.6969 29.0775 17.6969 27.8519V18.9629H21.2356C22.2244 18.9629 22.4792 18.7823 22.7508 17.8885L23.4261 15.6663C23.8913 14.1352 23.6047 13.7777 21.9109 13.7777H17.6969V10.0741C17.6969 9.25588 18.4024 8.59259 19.2727 8.59259H23.7576C25.0612 8.59259 25.3333 8.33679 25.3333 7.11111V4.14815C25.3333 2.92247 25.0612 2.66667 23.7576 2.66667H19.2727C14.9213 2.66667 11.3939 5.98309 11.3939 10.0741V13.7777H8.24243Z" stroke="white" stroke-width="2" stroke-linejoin="round"/>
</svg>
