<svg width="32" height="33" viewBox="0 0 32 33" fill="none" xmlns="http://www.w3.org/2000/svg">
<path d="M4.66699 14.1042C4.66699 9.07585 4.66699 6.5617 6.32673 4.99959C7.98645 3.4375 10.6577 3.4375 16.0003 3.4375H17.0306C21.3789 3.4375 23.553 3.4375 25.0629 4.50129C25.4955 4.80607 25.8795 5.16753 26.2034 5.57469C27.3337 6.99573 27.3337 9.04198 27.3337 13.1345V16.5284C27.3337 20.4794 27.3337 22.4547 26.7085 24.0324C25.7033 26.569 23.5775 28.5696 20.8825 29.5156C19.2062 30.1042 17.1073 30.1042 12.9094 30.1042C10.5107 30.1042 9.31129 30.1042 8.35337 29.7679C6.81338 29.2274 5.59866 28.084 5.02427 26.6347C4.66699 25.7331 4.66699 24.6043 4.66699 22.3466V14.1042Z" fill="#0033E6" stroke="#E4EAFF" stroke-width="2" stroke-linejoin="round"/>
<path d="M27.3333 16.771C27.3333 19.2255 25.3435 21.2154 22.8889 21.2154C22.0012 21.2154 20.9547 21.0599 20.0915 21.2911C19.3247 21.4966 18.7256 22.0957 18.5201 22.8625C18.2889 23.7257 18.4444 24.7722 18.4444 25.6599C18.4444 28.1145 16.4545 30.1043 14 30.1043" stroke="#E4EAFF" stroke-width="2" stroke-linecap="round" stroke-linejoin="round"/>
<path d="M10.667 10.1045H20.0003" stroke="#E4EAFF" stroke-width="2" stroke-linecap="round" stroke-linejoin="round"/>
<path d="M10.667 15.4375H14.667" stroke="#E4EAFF" stroke-width="2" stroke-linecap="round" stroke-linejoin="round"/>
</svg>
