<svg width="32" height="33" viewBox="0 0 32 33" fill="none" xmlns="http://www.w3.org/2000/svg">
<path d="M27.3327 19.4375C27.3327 24.4658 27.3327 26.98 25.6729 28.542C24.0132 30.1042 21.3419 30.1042 15.9993 30.1042H14.9691C10.6208 30.1042 8.44663 30.1042 6.93678 29.0404C6.50418 28.7356 6.12012 28.3742 5.79628 27.967C4.66602 26.5459 4.66602 24.4996 4.66602 20.4072V17.0132C4.66602 13.0624 4.66602 11.0869 5.29127 9.50917C6.29643 6.97273 8.4222 4.97201 11.1172 4.02597C12.7935 3.4375 14.8924 3.4375 19.0903 3.4375C21.4891 3.4375 22.6884 3.4375 23.6463 3.77377C25.1863 4.31437 26.4009 5.45763 26.9753 6.90702C27.3327 7.80859 27.3327 8.93742 27.3327 11.1951V19.4375Z" fill="#0033E6" stroke="#E4EAFF" stroke-width="2" stroke-linejoin="round"/>
<path d="M21.3333 23.4375H12" stroke="#E4EAFF" stroke-width="2" stroke-linecap="round" stroke-linejoin="round"/>
<path d="M21.334 18.1045H17.334" stroke="#E4EAFF" stroke-width="2" stroke-linecap="round" stroke-linejoin="round"/>
<path d="M4.66602 16.7708C4.66602 14.3163 6.65586 12.3264 9.11046 12.3264C9.99818 12.3264 11.0447 12.4819 11.9078 12.2507C12.6747 12.0452 13.2737 11.4462 13.4792 10.6793C13.7104 9.81622 13.5549 8.76966 13.5549 7.88194C13.5549 5.42734 15.5448 3.4375 17.9993 3.4375" stroke="#E4EAFF" stroke-width="2" stroke-linecap="round" stroke-linejoin="round"/>
</svg>
