<svg width="32" height="32" viewBox="0 0 32 32" fill="none" xmlns="http://www.w3.org/2000/svg">
<path d="M16.0003 29.3332C23.3641 29.3332 29.3337 23.3636 29.3337 15.9998C29.3337 8.63604 23.3641 2.6665 16.0003 2.6665C8.63653 2.6665 2.66699 8.63604 2.66699 15.9998C2.66699 23.3636 8.63653 29.3332 16.0003 29.3332Z" stroke="white" stroke-width="2"/>
<path d="M10.667 15.9998C10.667 23.9998 16.0003 29.3332 16.0003 29.3332C16.0003 29.3332 21.3337 23.9998 21.3337 15.9998C21.3337 7.99984 16.0003 2.6665 16.0003 2.6665C16.0003 2.6665 10.667 7.99984 10.667 15.9998Z" stroke="white" stroke-width="2" stroke-linejoin="round"/>
<path d="M28 20H4" stroke="white" stroke-width="2" stroke-linecap="round" stroke-linejoin="round"/>
<path d="M28 12H4" stroke="white" stroke-width="2" stroke-linecap="round" stroke-linejoin="round"/>
</svg>
