<svg width="32" height="33" viewBox="0 0 32 33" fill="none" xmlns="http://www.w3.org/2000/svg">
<path d="M16.0003 30.1045L13.3337 22.1045H2.66699L5.33366 30.1045H16.0003ZM16.0003 30.1045H21.3337Z" fill="#A3DFFF"/>
<path d="M16.0003 30.1045L13.3337 22.1045H2.66699L5.33366 30.1045H16.0003ZM16.0003 30.1045H21.3337" stroke="#E4EAFF" stroke-width="2" stroke-linecap="round" stroke-linejoin="round"/>
<path d="M15.9997 18.1045V17.4378C15.9997 14.9237 15.9997 13.6666 15.2186 12.8855C14.4375 12.1045 13.1805 12.1045 10.6663 12.1045C8.15218 12.1045 6.8951 12.1045 6.11406 12.8855C5.33301 13.6666 5.33301 14.9237 5.33301 17.4378V18.1045" fill="#0033E6"/>
<path d="M15.9997 18.1045V17.4378C15.9997 14.9237 15.9997 13.6666 15.2186 12.8855C14.4375 12.1045 13.1805 12.1045 10.6663 12.1045C8.15218 12.1045 6.8951 12.1045 6.11406 12.8855C5.33301 13.6666 5.33301 14.9237 5.33301 17.4378V18.1045" stroke="#E4EAFF" stroke-width="2" stroke-linecap="round" stroke-linejoin="round"/>
<path d="M25.3333 18.1042C25.3333 19.577 24.1395 20.7708 22.6667 20.7708C21.1939 20.7708 20 19.577 20 18.1042C20 16.6314 21.1939 15.4375 22.6667 15.4375C24.1395 15.4375 25.3333 16.6314 25.3333 18.1042Z" fill="#0033E6" stroke="#E4EAFF" stroke-width="2"/>
<path d="M13.3333 6.10417C13.3333 7.57693 12.1394 8.77083 10.6667 8.77083C9.19391 8.77083 8 7.57693 8 6.10417C8 4.63141 9.19391 3.4375 10.6667 3.4375C12.1394 3.4375 13.3333 4.63141 13.3333 6.10417Z" fill="#0033E6" stroke="#E4EAFF" stroke-width="2"/>
<path d="M18.667 24.1045H26.667C28.1398 24.1045 29.3337 25.2984 29.3337 26.7712V27.4378C29.3337 28.9106 28.1398 30.1045 26.667 30.1045H25.3337" fill="#0033E6"/>
<path d="M18.667 24.1045H26.667C28.1398 24.1045 29.3337 25.2984 29.3337 26.7712V27.4378C29.3337 28.9106 28.1398 30.1045 26.667 30.1045H25.3337" stroke="#E4EAFF" stroke-width="2" stroke-linecap="round"/>
</svg>
