<svg width="32" height="33" viewBox="0 0 32 33" fill="none" xmlns="http://www.w3.org/2000/svg">
<path d="M16.0003 30.1042C23.3641 30.1042 29.3337 24.1346 29.3337 16.7708C29.3337 9.40704 23.3641 3.4375 16.0003 3.4375C8.63653 3.4375 2.66699 9.40704 2.66699 16.7708C2.66699 24.1346 8.63653 30.1042 16.0003 30.1042Z" fill="#0033E6" stroke="#E4EAFF" stroke-width="2"/>
<path d="M20.6045 17.2976C20.4025 18.1332 19.4479 18.7237 17.5389 19.9048C15.6933 21.0464 14.7706 21.6173 14.0269 21.3878C13.7194 21.2929 13.4394 21.1128 13.2134 20.8645C12.667 20.2642 12.667 19.0998 12.667 16.7712C12.667 14.4425 12.667 13.2781 13.2134 12.6778C13.4394 12.4296 13.7194 12.2494 14.0269 12.1545C14.7706 11.9251 15.6933 12.4959 17.5389 13.6376C19.4479 14.8186 20.4025 15.4092 20.6045 16.2448C20.6878 16.5897 20.6878 16.9526 20.6045 17.2976Z" stroke="#E4EAFF" stroke-width="2" stroke-linejoin="round"/>
</svg>
