<svg width="32" height="32" viewBox="0 0 32 32" fill="none" xmlns="http://www.w3.org/2000/svg">
<path d="M18.6663 19.0028V21.7887C17.8322 21.4939 16.9347 21.3335 15.9997 21.3335C11.5814 21.3335 7.99967 24.9152 7.99967 29.3335H5.33301C5.33301 23.4424 10.1086 18.6668 15.9997 18.6668C16.9205 18.6668 17.8141 18.7835 18.6663 19.0028ZM15.9997 17.3335C11.5797 17.3335 7.99967 13.7535 7.99967 9.3335C7.99967 4.9135 11.5797 1.3335 15.9997 1.3335C20.4197 1.3335 23.9997 4.9135 23.9997 9.3335C23.9997 13.7535 20.4197 17.3335 15.9997 17.3335ZM15.9997 14.6668C18.9463 14.6668 21.333 12.2802 21.333 9.3335C21.333 6.38683 18.9463 4.00016 15.9997 4.00016C13.053 4.00016 10.6663 6.38683 10.6663 9.3335C10.6663 12.2802 13.053 14.6668 15.9997 14.6668ZM23.7235 26.5524L28.4375 21.8384L30.3231 23.724L23.7235 30.3236L19.0095 25.6096L20.8951 23.724L23.7235 26.5524Z" fill="#0033E6"/>
</svg>
