<svg width="32" height="32" viewBox="0 0 32 32" fill="none" xmlns="http://www.w3.org/2000/svg">
<path d="M5.33333 29.3334C5.33333 23.4423 10.109 18.6667 16 18.6667C21.8911 18.6667 26.6667 23.4423 26.6667 29.3334H24C24 24.9151 20.4183 21.3334 16 21.3334C11.5817 21.3334 7.99999 24.9151 7.99999 29.3334H5.33333ZM16 17.3334C11.58 17.3334 7.99999 13.7534 7.99999 9.33337C7.99999 4.91337 11.58 1.33337 16 1.33337C20.42 1.33337 24 4.91337 24 9.33337C24 13.7534 20.42 17.3334 16 17.3334ZM16 14.6667C18.9467 14.6667 21.3333 12.28 21.3333 9.33337C21.3333 6.38671 18.9467 4.00004 16 4.00004C13.0533 4.00004 10.6667 6.38671 10.6667 9.33337C10.6667 12.28 13.0533 14.6667 16 14.6667Z" fill="#0033E6"/>
</svg>
