<svg width="32" height="33" viewBox="0 0 32 33" fill="none" xmlns="http://www.w3.org/2000/svg">
<path d="M16.667 30.1042H8.78815C6.72765 30.1042 5.08874 29.1015 3.61721 27.6997C0.604814 24.8297 5.55073 22.5362 7.43709 21.413C10.4363 19.6271 13.9823 19.0521 17.3337 19.6879" fill="#0033E6"/>
<path d="M16.667 30.1042H8.78815C6.72765 30.1042 5.08874 29.1015 3.61721 27.6997C0.604814 24.8297 5.55073 22.5362 7.43709 21.413C10.4363 19.6271 13.9823 19.0521 17.3337 19.6879" stroke="#E4EAFF" stroke-width="2" stroke-linecap="round" stroke-linejoin="round"/>
<path d="M20.667 9.4375C20.667 12.7512 17.9807 15.4375 14.667 15.4375C11.3533 15.4375 8.66699 12.7512 8.66699 9.4375C8.66699 6.12379 11.3533 3.4375 14.667 3.4375C17.9807 3.4375 20.667 6.12379 20.667 9.4375Z" fill="#0033E6" stroke="#E4EAFF" stroke-width="2"/>
<path d="M24.9218 20.2078L25.8603 22.1005C25.9883 22.3638 26.3295 22.6166 26.6175 22.665L28.3187 22.9499C29.4066 23.1327 29.6626 23.9285 28.8786 24.7135L27.5561 26.047C27.3322 26.2729 27.2095 26.7083 27.2789 27.0202L27.6574 28.6709C27.9561 29.9774 27.2682 30.4829 26.1217 29.7999L24.5271 28.8483C24.2391 28.6762 23.7646 28.6762 23.4713 28.8483L21.8767 29.7999C20.7355 30.4829 20.0423 29.9721 20.3409 28.6709L20.7195 27.0202C20.7889 26.7083 20.6662 26.2729 20.4422 26.047L19.1197 24.7135C18.3411 23.9285 18.5918 23.1327 19.6797 22.9499L21.3807 22.665C21.6634 22.6166 22.0047 22.3638 22.1327 22.1005L23.0713 20.2078C23.5833 19.1807 24.4151 19.1807 24.9218 20.2078Z" fill="#FFB800" stroke="#E4EAFF" stroke-width="2" stroke-linecap="round" stroke-linejoin="round"/>
</svg>
