<svg width="32" height="33" viewBox="0 0 32 33" fill="none" xmlns="http://www.w3.org/2000/svg">
<path d="M22.666 12.6453L22.8339 12.5068C25.6549 10.1791 27.0655 9.01532 28.1991 9.57726C29.3327 10.1392 29.3327 12.0022 29.3327 15.7283V17.8134C29.3327 21.5395 29.3327 23.4024 28.1991 23.9644C27.0655 24.5263 25.6549 23.3626 22.8339 21.0348L22.666 20.8963" fill="#0033E6"/>
<path d="M22.666 12.6453L22.8339 12.5068C25.6549 10.1791 27.0655 9.01532 28.1991 9.57726C29.3327 10.1392 29.3327 12.0022 29.3327 15.7283V17.8134C29.3327 21.5395 29.3327 23.4024 28.1991 23.9644C27.0655 24.5263 25.6549 23.3626 22.8339 21.0348L22.666 20.8963" stroke="#E4EAFF" stroke-width="2" stroke-linecap="round"/>
<path d="M2.66699 15.4378C2.66699 11.0381 2.66699 8.83816 4.03383 7.47133C5.40066 6.10449 7.60055 6.10449 12.0003 6.10449H13.3337C17.7334 6.10449 19.9333 6.10449 21.3002 7.47133C22.667 8.83816 22.667 11.0381 22.667 15.4378V18.1045C22.667 22.5042 22.667 24.7041 21.3002 26.071C19.9333 27.4378 17.7334 27.4378 13.3337 27.4378H12.0003C7.60055 27.4378 5.40066 27.4378 4.03383 26.071C2.66699 24.7041 2.66699 22.5042 2.66699 18.1045V15.4378Z" fill="#0033E6" stroke="#E4EAFF" stroke-width="2"/>
<path d="M14.666 11.4375H17.3327" stroke="#E4EAFF" stroke-width="2" stroke-linecap="round"/>
</svg>
