<svg width="32" height="32" viewBox="0 0 32 32" fill="none" xmlns="http://www.w3.org/2000/svg">
<path d="M16 27.3333C18.4129 27.3333 20.7268 27.0949 22.8712 26.6579C25.5497 26.1119 26.8891 25.8388 28.1112 24.2675C29.3333 22.6961 29.3333 20.8924 29.3333 17.2847V14.7153C29.3333 11.1076 29.3333 9.30383 28.1112 7.7325C26.8891 6.16118 25.5497 5.88818 22.8712 5.34216C20.7268 4.90503 18.4129 4.66667 16 4.66667C13.5871 4.66667 11.2732 4.90503 9.12875 5.34216C6.45021 5.88818 5.11095 6.16118 3.8888 7.7325C2.66667 9.30383 2.66667 11.1076 2.66667 14.7153V17.2847C2.66667 20.8924 2.66667 22.6961 3.8888 24.2675C5.11095 25.8388 6.45021 26.1119 9.12875 26.6579C11.2732 27.0949 13.5871 27.3333 16 27.3333Z" stroke="white" stroke-width="2"/>
<path d="M21.2828 16.4172C21.0849 17.2249 20.0321 17.8051 17.9265 18.9655C15.6363 20.2273 14.4912 20.8584 13.5637 20.6153C13.2496 20.5329 12.9603 20.3881 12.7173 20.1917C12 19.6119 12 18.4079 12 16C12 13.5921 12 12.3882 12.7173 11.8082C12.9603 11.6118 13.2496 11.4671 13.5637 11.3847C14.4912 11.1416 15.6363 11.7726 17.9265 13.0346C20.0321 14.1949 21.0849 14.7751 21.2828 15.5828C21.3501 15.8577 21.3501 16.1423 21.2828 16.4172Z" stroke="white" stroke-width="2" stroke-linejoin="round"/>
</svg>
